<svg width="244" height="244" viewBox="0 0 244 244" fill="none" xmlns="http://www.w3.org/2000/svg">
<g filter="url(#filter0_d_49_395)">
<path d="M122.668 0.792138L97.4078 71.6143L114.579 71.6197C126.949 71.6232 132.213 81.3761 128.318 92.2981L103.2 162.719H77.926L105.56 85.2328H92.5469L64.9149 162.719H39.4221L96.123 3.7293C43.9068 15.6412 4.93848 62.3627 4.93848 118.188C4.93848 173.144 42.7 219.274 93.6904 232.064L150.976 71.2196H192.464C201.045 71.2196 211.837 77.0054 207.173 90.174L183.88 155.945C180.905 164.347 173.832 166.049 168.198 166.049H142.693L117.956 235.503C119.413 235.556 120.872 235.593 122.34 235.593C187.18 235.593 239.743 183.031 239.743 118.19C239.743 53.4585 187.356 0.967608 122.664 0.791504L122.668 0.792138ZM171.543 85.0428L147.483 152.582H160.295L184.36 85.0428H171.543Z" fill="#015294"/>
</g>
<defs>
<filter id="filter0_d_49_395" x="0.938477" y="0.791504" width="242.805" height="242.801" filterUnits="userSpaceOnUse" color-interpolation-filters="sRGB">
<feFlood flood-opacity="0" result="BackgroundImageFix"/>
<feColorMatrix in="SourceAlpha" type="matrix" values="0 0 0 0 0 0 0 0 0 0 0 0 0 0 0 0 0 0 127 0" result="hardAlpha"/>
<feOffset dy="4"/>
<feGaussianBlur stdDeviation="2"/>
<feComposite in2="hardAlpha" operator="out"/>
<feColorMatrix type="matrix" values="0 0 0 0 0 0 0 0 0 0 0 0 0 0 0 0 0 0 0.25 0"/>
<feBlend mode="normal" in2="BackgroundImageFix" result="effect1_dropShadow_49_395"/>
<feBlend mode="normal" in="SourceGraphic" in2="effect1_dropShadow_49_395" result="shape"/>
</filter>
</defs>
</svg>
