<svg width="225" height="262" viewBox="0 0 225 262" fill="none" xmlns="http://www.w3.org/2000/svg">
<path d="M105.634 234.507H110.916V261.972L105.634 260.366V234.507Z" fill="url(#paint0_linear_0_1)"/>
<path d="M120.423 258.803H114.085V231.338L120.423 232.943V258.803Z" fill="url(#paint1_linear_0_1)"/>
<path d="M150.649 234.51C152.032 234.51 153.001 234.501 153.969 234.514C154.375 234.519 154.779 234.569 155.282 234.605C155.282 242.327 155.282 249.954 155.282 257.732C153.397 257.732 151.486 257.732 149.398 257.732C145.308 252.047 141.148 246.266 136.988 240.485C136.881 240.498 136.772 240.512 136.664 240.525C136.664 246.221 136.664 251.916 136.664 257.746C135.008 257.746 133.59 257.746 132.042 257.746C132.042 250.058 132.042 242.387 132.042 234.613C134.055 234.613 135.985 234.613 138.121 234.613C142.123 240.114 146.197 245.712 150.271 251.311C150.397 251.292 150.523 251.273 150.649 251.254C150.649 245.757 150.649 240.258 150.649 234.51Z" fill="#6C6C6C"/>
<path d="M188.024 246.229C187.846 253.759 181.98 258.995 173.945 258.797C165.782 258.595 160.421 253.381 160.566 245.867C160.703 238.85 165.778 233.352 174.52 233.452C182.817 233.546 188.2 238.767 188.024 246.229ZM183.234 246.1C183.313 241.161 179.606 237.455 174.446 237.316C169.408 237.181 165.393 240.928 165.34 245.814C165.284 251.053 169.038 254.893 174.249 254.922C179.398 254.951 183.15 251.266 183.234 246.1Z" fill="#6C6C6C"/>
<path d="M58.8464 243.889C63.071 243.889 67.1786 243.889 71.4466 243.889C71.4466 245.21 71.4466 246.367 71.4466 247.689C67.2328 247.689 63.1243 247.689 58.873 247.689C58.873 249.831 58.873 251.813 58.873 253.994C63.4575 253.994 68.0827 253.994 72.8876 253.994C72.8876 255.336 72.8876 256.482 72.8876 257.746C66.5523 257.746 60.2788 257.746 53.8735 257.746C53.8735 249.997 53.8735 242.302 53.8735 234.507C59.9618 234.507 65.9503 234.507 72.1195 234.507C72.1195 235.649 72.1195 236.798 72.1195 238.162C67.7418 238.162 63.3482 238.162 58.846 238.162C58.8464 240.156 58.8464 241.94 58.8464 243.889Z" fill="#6C6C6C"/>
<path d="M76.0566 255.626C77.0273 254.616 77.9951 253.609 79.0509 252.511C79.6548 252.966 80.1114 253.334 80.5929 253.67C82.5861 255.063 85.4394 255.283 87.3511 254.201C89.6157 252.92 89.6953 250.424 87.4231 249.148C86.3567 248.55 85.1204 248.202 83.9527 247.76C82.7194 247.292 81.4027 246.967 80.2495 246.372C75.9778 244.168 75.343 238.892 78.9167 235.815C82.6665 232.586 90.0866 232.657 93.679 236.068C92.6341 237.075 91.5838 238.087 90.4886 239.143C88.5688 237.438 86.399 236.984 83.9731 237.623C82.6458 237.973 81.7403 238.785 81.5701 240.061C81.396 241.367 82.1206 242.339 83.3963 242.843C85.0094 243.48 86.6794 243.998 88.3281 244.558C92.4749 245.969 94.3485 248.371 93.9657 251.797C93.5561 255.462 90.8685 258 86.7522 258.61C82.2536 259.275 78.4444 258.2 76.0566 255.626Z" fill="#6C6C6C"/>
<path d="M28.5215 234.543C30.4315 234.543 32.1137 234.543 34.0155 234.543C35.9837 237.445 38.0256 240.455 40.2386 243.717C42.4329 240.512 44.4868 237.513 46.5456 234.507C48.2445 234.507 49.8742 234.507 51.7609 234.507C51.3999 235.1 51.1475 235.581 50.8327 236.023C48.329 239.541 45.769 243.025 43.3357 246.584C42.7923 247.379 42.4559 248.417 42.4149 249.357C42.2948 252.107 42.3722 254.865 42.3722 257.746C40.8487 257.746 39.4628 257.746 37.8413 257.746C37.8413 255.269 37.729 252.833 37.8777 250.411C37.9917 248.549 37.4143 247.046 36.2628 245.535C33.9135 242.453 31.7375 239.259 29.5001 236.105C29.178 235.653 28.91 235.168 28.5215 234.543Z" fill="#6C6C6C"/>
<circle cx="112.5" cy="112.5" r="112.5" fill="#FF6D00"/>
<path d="M76.0703 57.5015H101.829V184.779L76.0703 177.338V57.5015Z" fill="url(#paint2_linear_0_1)"/>
<path d="M148.801 168.113H123.042V42.3501L148.801 49.701V168.113Z" fill="white"/>
<defs>
<linearGradient id="paint0_linear_0_1" x1="105.634" y1="261.972" x2="130.282" y2="249.872" gradientUnits="userSpaceOnUse">
<stop stop-color="#FD0863"/>
<stop offset="1" stop-color="#FFC147"/>
</linearGradient>
<linearGradient id="paint1_linear_0_1" x1="102.071" y1="262.491" x2="129.319" y2="246.439" gradientUnits="userSpaceOnUse">
<stop stop-color="#FD0863"/>
<stop offset="1" stop-color="#FFC147"/>
</linearGradient>
<linearGradient id="paint2_linear_0_1" x1="76.0703" y1="184.779" x2="158.417" y2="182.881" gradientUnits="userSpaceOnUse">
<stop stop-color="white"/>
</linearGradient>
</defs>
</svg>
