<svg width="247" height="251" viewBox="0 0 247 251" fill="none" xmlns="http://www.w3.org/2000/svg">
<g filter="url(#filter0_d_50_408)">
<path d="M77.6055 202.406V225.086C77.6055 231.537 74.3999 234.943 68.5897 234.943C62.7394 234.943 59.5338 231.417 59.5338 224.805V202.446H51.5198V225.086C51.5198 236.225 57.6906 242.596 68.5096 242.596C79.4087 242.596 85.6597 236.105 85.6597 224.725V202.366L77.6055 202.406ZM107.137 202.406L89.7068 241.995H97.9212L101.287 234.342L101.528 233.781H119.639L123.206 242.035H131.62L114.35 202.686L114.19 202.446L107.137 202.406ZM154.901 202.406L145.925 229.654L137.19 202.446H128.615L142.399 242.035H149.051L158.067 216.03L167.083 242.035H173.774L187.518 202.446H179.184L170.408 229.654L161.433 202.406H154.901ZM233.519 202.406V241.955H241.453V202.406H233.519ZM6.16016 202.406V241.995H14.1742V225.927H32.3261V241.995H40.3802V202.406H32.3261V218.394H14.1742V202.406H6.16016ZM194.01 202.446V241.995H223.902V234.783H201.944V224.965H216.569V217.753H201.944V209.659H223.181V202.446H194.01ZM110.543 212.423L116.273 225.687H116.233L116.634 226.608H104.493L104.893 225.687L110.543 212.423Z" fill="#232527"/>
<path d="M106.216 0.050293C103.01 0.330785 94.4353 2.29423 94.4353 2.29423C75.0412 7.30302 70.4332 24.934 70.4332 24.934C69.4715 27.8992 69.0708 30.9445 68.9105 33.7895V37.6763C69.1509 43.6869 70.5133 48.1747 70.5133 48.1747C77.0047 76.9452 108.861 124.188 115.713 134.085C116.193 134.566 116.594 134.406 116.594 134.406C117.315 134.206 117.275 133.484 117.275 133.484C127.854 28.0194 106.216 0.050293 106.216 0.050293ZM141.077 0.050293C141.077 0.050293 119.359 28.0194 129.897 133.565C129.978 134.246 130.458 134.366 130.458 134.366C131.18 134.646 131.54 133.965 131.54 133.965C138.553 123.787 170.248 76.825 176.7 48.1747C176.7 48.1747 180.186 34.3104 176.82 24.934C176.82 24.934 172.011 7.0626 152.577 2.33431C152.617 2.33431 147.048 0.89177 141.077 0.050293ZM40.9013 31.7459C40.9013 31.7459 22.3889 49.2967 21.5073 67.8893V70.6943C21.5073 70.8946 21.5474 71.135 21.5474 71.3354C22.3488 86.3217 33.6486 95.2173 33.6486 95.2173C51.8005 112.968 95.8377 135.328 106.056 140.417C106.216 140.457 106.737 140.657 107.057 140.256C107.057 140.256 107.218 140.136 107.298 139.896V139.415C107.298 139.375 107.258 139.375 107.258 139.335C79.2486 78.1473 40.9013 31.7058 40.9013 31.7459ZM206.352 31.7459C206.352 31.7459 168.125 78.0271 140.115 139.134C140.115 139.134 139.795 139.856 140.316 140.296C140.316 140.296 140.476 140.417 140.676 140.457H141.077C141.157 140.417 141.237 140.417 141.277 140.377C151.776 135.167 195.493 112.928 213.604 95.2974C213.604 95.2974 225.064 86.0813 225.666 71.2953C227.028 50.7392 206.352 31.7058 206.352 31.7459ZM240.772 92.4925C240.772 92.4925 178.463 125.951 146.246 147.669C146.246 147.669 145.645 148.07 145.886 148.751C145.886 148.751 146.206 149.312 146.647 149.312C158.187 149.352 201.864 149.392 202.946 149.192C202.946 149.192 208.596 148.952 215.568 146.267C215.568 146.267 231.115 141.338 239.169 123.707C239.169 123.707 242.856 116.334 242.896 105.956V105.515C242.856 101.548 242.295 97.1006 240.772 92.4925ZM6.48094 92.6528C0.790954 110.204 8.44439 124.348 8.44439 124.388C16.4184 141.178 31.565 146.307 31.565 146.307C38.5773 149.192 45.5896 149.392 45.5896 149.392C46.6715 149.593 89.1861 149.432 100.566 149.352C101.047 149.352 101.327 148.871 101.327 148.871C101.367 148.831 101.408 148.751 101.408 148.711V148.27C101.327 147.99 101.047 147.749 101.047 147.749C68.8704 126.031 6.48094 92.6528 6.48094 92.6528ZM99.2838 154.722L25.9551 157.286C33.889 171.471 47.3126 182.49 61.2571 179.084C70.8739 176.68 92.6722 161.454 99.8848 156.325L99.8448 156.284C100.406 155.764 100.205 155.363 100.205 155.363C100.045 154.762 99.2838 154.762 99.2838 154.722ZM147.849 154.762C147.849 154.802 147.208 154.882 147.008 155.363C147.008 155.363 146.847 156.004 147.288 156.365C154.3 161.413 175.578 176.28 185.836 179.165C185.836 179.165 187.398 179.686 190.003 179.806H191.566C198.418 179.565 210.399 176.039 221.258 157.366L147.849 154.762Z" fill="#CF0A2C"/>
</g>
<defs>
<filter id="filter0_d_50_408" x="0.376953" y="0.050293" width="246.519" height="250.546" filterUnits="userSpaceOnUse" color-interpolation-filters="sRGB">
<feFlood flood-opacity="0" result="BackgroundImageFix"/>
<feColorMatrix in="SourceAlpha" type="matrix" values="0 0 0 0 0 0 0 0 0 0 0 0 0 0 0 0 0 0 127 0" result="hardAlpha"/>
<feOffset dy="4"/>
<feGaussianBlur stdDeviation="2"/>
<feComposite in2="hardAlpha" operator="out"/>
<feColorMatrix type="matrix" values="0 0 0 0 0 0 0 0 0 0 0 0 0 0 0 0 0 0 0.25 0"/>
<feBlend mode="normal" in2="BackgroundImageFix" result="effect1_dropShadow_50_408"/>
<feBlend mode="normal" in="SourceGraphic" in2="effect1_dropShadow_50_408" result="shape"/>
</filter>
</defs>
</svg>
