<svg width="258" height="255" viewBox="0 0 258 255" fill="none" xmlns="http://www.w3.org/2000/svg">
<g filter="url(#filter0_f_183_28)">
<path d="M4 188.426V188.438C4.14915 193.899 4.19515 199.391 5.1283 204.819C6.11714 210.561 7.53067 216.16 10.2275 221.372C13.8734 228.426 18.8805 234.383 25.2009 239.249C29.7388 242.743 34.6961 245.516 40.1836 247.266C48.1854 249.814 56.4404 250.791 64.816 250.838C70.0415 250.871 75.2636 251 80.4911 250.979C118.454 250.821 156.418 251.249 194.381 250.747C199.419 250.68 204.374 250.073 209.319 249.181C218.795 247.468 227.17 243.477 234.335 237.166C242.686 229.813 248.32 220.815 250.864 209.954C252.528 202.855 252.945 195.653 253.016 188.426V186.984C253.016 186.424 252.8 64.1791 252.78 62.5634C252.725 58.1248 252.394 53.7196 251.55 49.3523C250.525 44.0302 249.077 38.8445 246.495 34.0296C243.769 28.9428 240.355 24.3689 236.132 20.372C229.663 14.2483 222.198 9.91778 213.507 7.62701C205.657 5.55853 197.649 5.10057 189.582 5.10774C189.569 5.10583 189.539 5.02504 189.537 4.98584H67.4401C67.4377 5.02695 67.4362 5.06806 67.4333 5.10774C62.8552 5.19044 58.2704 5.1565 53.7155 5.71389C48.7258 6.32626 43.784 7.2484 39.0611 8.9703C31.6221 11.6865 25.1588 15.9172 19.6379 21.5652C13.3828 27.9643 8.97373 35.3648 6.63432 43.9824C4.5472 51.6712 4.09298 59.513 4.08184 67.4102" fill="#CECECE"/>
<path d="M129.659 212.561C129.141 212.561 128.646 212.542 128.27 212.524C127.972 212.549 127.664 212.561 127.355 212.561C116.466 212.561 109.186 207.489 102.761 203.012C98.1564 199.807 93.8135 196.782 88.7258 195.948C86.227 195.54 83.7413 195.333 81.3396 195.333C77.0123 195.333 73.5924 195.994 71.0956 196.475C69.5592 196.77 68.2343 197.024 67.2104 197.024C66.1379 197.024 64.8349 196.789 64.2918 194.962C63.8614 193.522 63.5527 192.126 63.2548 190.781C62.5093 187.422 61.9687 185.371 60.6919 185.176C47.0354 183.101 38.9664 180.043 37.3591 176.339C37.1907 175.95 37.0966 175.559 37.0757 175.171C37.0131 174.068 37.8042 173.099 38.9087 172.919C49.754 171.16 59.3972 165.513 67.5719 156.129C73.9045 148.865 77.0142 141.924 77.3481 141.157C77.3627 141.123 77.3796 141.087 77.3971 141.054C78.9728 137.904 79.2863 135.182 78.3318 132.966C76.5721 128.878 70.7443 127.057 66.8886 125.851C65.9297 125.552 65.0227 125.269 64.3001 124.987C60.8822 123.657 55.2611 120.847 56.0099 116.968C56.5553 114.14 60.3527 112.17 63.4217 112.17C64.2739 112.17 65.029 112.317 65.6647 112.611C69.1326 114.212 72.2525 115.023 74.9357 115.023C78.2726 115.023 79.8842 113.771 80.2739 113.416C80.1778 111.662 80.0604 109.808 79.9468 108.054C79.9468 108.052 79.9444 108.031 79.9444 108.031C79.1612 95.7565 78.1843 80.4806 82.1505 71.7206C94.0217 45.4988 119.197 43.4597 126.628 43.4597C126.826 43.4597 129.867 43.4301 129.867 43.4301C130.004 43.4277 130.153 43.4258 130.307 43.4258C137.759 43.4258 162.986 45.4672 174.865 71.7048C178.831 80.4706 177.853 95.7594 177.068 108.047L177.031 108.635C176.923 110.304 176.824 111.883 176.74 113.414C177.106 113.747 178.581 114.894 181.582 115.01C184.14 114.914 187.079 114.106 190.316 112.613C191.317 112.15 192.425 112.054 193.177 112.054C194.314 112.054 195.471 112.272 196.435 112.668L196.487 112.688C199.233 113.649 201.032 115.568 201.071 117.585C201.106 119.464 199.688 122.274 192.713 124.988C191.999 125.267 191.087 125.552 190.124 125.852C186.265 127.059 180.442 128.88 178.683 132.965C177.727 135.181 178.041 137.902 179.617 141.051C179.635 141.085 179.65 141.12 179.667 141.156C180.152 142.277 191.899 168.663 218.106 172.917C219.21 173.098 220.003 174.067 219.94 175.169C219.916 175.565 219.819 175.961 219.65 176.348C218.053 180.03 209.985 183.084 196.324 185.163C195.042 185.358 194.502 187.399 193.764 190.741C193.458 192.121 193.147 193.474 192.722 194.896C192.325 196.233 191.441 196.887 190.021 196.887H189.807C188.882 196.887 187.572 196.721 185.92 196.403C183.033 195.849 179.794 195.334 175.676 195.334C173.275 195.334 170.79 195.541 168.288 195.949C163.206 196.783 158.863 199.804 154.267 203.005C147.829 207.489 140.547 212.561 129.659 212.561Z" fill="#CECECE"/>
<path d="M130.303 45.8285C137.299 45.8285 161.391 47.6867 172.744 72.8529C176.483 81.1398 175.524 96.1513 174.756 108.21C174.636 110.124 174.517 111.979 174.42 113.75L174.379 114.511L174.893 115.078C175.101 115.306 177.044 117.314 181.366 117.479L181.436 117.483L181.509 117.481C184.366 117.374 187.585 116.496 191.08 114.877C191.595 114.639 192.281 114.523 193.006 114.523C193.832 114.523 194.71 114.676 195.434 114.978L195.543 115.021C197.376 115.656 198.672 116.853 198.692 117.937C198.702 118.549 198.239 120.756 191.742 123.293C191.107 123.541 190.271 123.805 189.302 124.107C185.074 125.434 178.686 127.438 176.536 132.447C175.325 135.268 175.657 138.598 177.52 142.342C178.287 144.111 190.356 170.99 217.514 175.415C217.509 175.542 217.476 175.681 217.403 175.845C216.943 176.917 214.017 180.621 195.811 183.398C192.962 183.83 192.264 186.987 191.455 190.658C191.163 191.972 190.865 193.298 190.457 194.668C190.332 195.082 190.309 195.106 189.86 195.106C189.798 195.106 189.726 195.106 189.646 195.106C188.839 195.106 187.613 194.94 186.193 194.665C183.606 194.166 180.072 193.555 175.553 193.555C173.032 193.555 170.434 193.772 167.828 194.202C162.256 195.118 157.726 198.287 152.927 201.64C146.483 206.142 139.823 210.801 129.661 210.801C129.217 210.801 128.784 210.786 128.35 210.765L128.235 210.76L128.121 210.769C127.871 210.79 127.62 210.801 127.364 210.801C117.203 210.801 110.54 206.144 104.099 201.64C99.2993 198.287 94.7662 195.118 89.1958 194.202C86.5918 193.773 83.9918 193.555 81.4716 193.555C76.9544 193.555 73.4159 194.239 70.8342 194.738C69.4136 195.012 68.1838 195.248 67.3789 195.248C66.7197 195.248 66.7071 195.21 66.5677 194.739C66.1592 193.368 65.8606 192.01 65.5697 190.697C64.7585 187.023 64.0601 183.848 61.2127 183.416C43.0079 180.636 40.0816 176.927 39.6199 175.858C39.5478 175.689 39.5153 175.546 39.5081 175.418C66.6655 170.998 78.7321 144.118 79.5012 142.342C81.368 138.601 81.6991 135.271 80.4847 132.447C78.3348 127.44 71.9479 125.434 67.7225 124.109C66.7511 123.805 65.9148 123.541 65.2793 123.293C59.7926 121.15 58.1049 118.991 58.3556 117.682C58.6465 116.174 61.2921 114.639 63.6008 114.639C64.1196 114.639 64.5746 114.722 64.911 114.878C68.6605 116.615 72.0834 117.496 75.0857 117.496C79.8052 117.496 81.9057 115.325 82.1313 115.077L82.6429 114.512L82.6017 113.754C82.5064 111.984 82.3888 110.13 82.2649 108.22C81.4987 96.158 80.5404 81.1566 84.2774 72.8692C95.5885 47.7953 119.563 45.8625 126.64 45.8625C126.814 45.8625 129.891 45.8314 129.891 45.8314C130.017 45.8304 130.156 45.8285 130.303 45.8285ZM130.303 41.5034H130.295C130.134 41.5034 129.982 41.5034 129.838 41.5053C128.688 41.5168 126.797 41.535 126.628 41.5369C122.482 41.5369 114.186 42.116 105.276 46.0046C100.181 48.2265 95.5987 51.2308 91.656 54.9343C86.9553 59.3469 83.1259 64.7875 80.2761 71.1072C76.1026 80.3603 77.0933 95.946 77.889 108.471L77.8919 108.491C77.9771 109.832 78.0666 111.233 78.1484 112.597C77.5362 112.875 76.5435 113.169 75.0803 113.169C72.7261 113.169 69.9267 112.425 66.7618 110.958C65.8306 110.53 64.7677 110.313 63.595 110.313C61.7107 110.313 59.7244 110.861 58.0013 111.863C55.8335 113.121 54.4328 114.9 54.0524 116.872C53.8017 118.177 53.8138 120.755 56.7105 123.37C58.3038 124.809 60.6445 126.137 63.6656 127.317C64.4584 127.626 65.3993 127.921 66.3959 128.233C69.8541 129.32 75.0881 130.962 76.453 134.138C77.1446 135.749 76.8469 137.867 75.5706 140.429C75.5372 140.499 75.5038 140.567 75.4733 140.639C75.1544 141.375 72.1787 148.039 66.075 155.068C62.6066 159.065 58.7864 162.405 54.7266 164.999C49.7714 168.165 44.4096 170.235 38.7918 171.15C36.5857 171.508 35.0103 173.452 35.1332 175.66C35.1709 176.297 35.322 176.931 35.5838 177.545C35.5857 177.549 35.5882 177.553 35.5901 177.556C36.4821 179.619 38.5503 181.372 41.9126 182.917C46.0213 184.804 52.1662 186.391 60.175 187.633C60.5796 188.394 60.9997 190.306 61.2906 191.616C61.5951 193.007 61.9126 194.438 62.3651 195.958C62.8535 197.605 64.1201 199.572 67.374 199.572C68.6073 199.572 70.0254 199.298 71.6676 198.983C74.0726 198.516 77.3614 197.88 81.4663 197.88C83.742 197.88 86.1006 198.078 88.4746 198.468C93.0509 199.221 96.996 201.977 101.561 205.168C108.242 209.837 115.804 215.123 127.359 215.123C127.674 215.123 127.99 215.113 128.302 215.091C128.684 215.109 129.157 215.123 129.657 215.123C141.215 215.123 148.776 209.835 155.449 205.17L155.46 205.16C160.026 201.973 163.966 199.221 168.541 198.468C170.914 198.078 173.272 197.88 175.549 197.88C179.47 197.88 182.575 198.374 185.348 198.909C187.157 199.261 188.563 199.43 189.642 199.43L189.747 199.432H189.857C192.237 199.432 193.985 198.141 194.653 195.881C195.096 194.393 195.413 192.995 195.725 191.58C195.997 190.353 196.431 188.387 196.836 187.617C204.85 186.373 210.993 184.789 215.102 182.903C218.456 181.364 220.522 179.614 221.419 177.559C221.689 176.944 221.846 176.305 221.881 175.655C222.008 173.451 220.43 171.503 218.222 171.145C193.255 167.077 182.007 141.712 181.542 140.634C181.512 140.564 181.478 140.493 181.443 140.425C180.166 137.863 179.872 135.746 180.564 134.133C181.926 130.96 187.156 129.318 190.617 128.232C191.619 127.92 192.563 127.623 193.35 127.316C196.757 125.985 199.192 124.542 200.798 122.903C202.717 120.949 203.09 119.077 203.067 117.852C203.008 114.888 200.717 112.254 197.071 110.964C195.84 110.461 194.436 110.195 193.006 110.195C192.033 110.195 190.591 110.327 189.227 110.957C186.306 112.308 183.69 113.047 181.443 113.153C180.249 113.093 179.411 112.837 178.868 112.592C178.937 111.436 179.012 110.248 179.09 109.01L179.122 108.48C179.923 95.9465 180.917 80.3488 176.741 71.089C173.879 64.7468 170.036 59.2924 165.317 54.8701C161.359 51.1643 156.761 48.1605 151.648 45.94C142.75 42.0801 134.455 41.5034 130.303 41.5034Z" fill="#020202"/>
</g>
<path d="M6.29395 182.19V182.2C6.4395 187.595 6.4844 193.021 7.39505 198.382C8.36006 204.054 9.73952 209.585 12.3713 214.733C15.9294 221.701 20.8158 227.586 26.9839 232.392C31.4125 235.844 36.2502 238.583 41.6055 240.312C49.4144 242.828 57.4704 243.793 65.6442 243.84C70.7438 243.873 75.84 244 80.9415 243.979C117.989 243.823 155.038 244.246 192.087 243.75C197.003 243.684 201.839 243.084 206.664 242.203C215.912 240.511 224.085 236.568 231.078 230.335C239.228 223.072 244.726 214.183 247.208 203.455C248.832 196.442 249.239 189.328 249.308 182.189V180.764C249.308 180.212 249.098 59.4573 249.078 57.8612C249.024 53.4768 248.701 49.1253 247.878 44.8112C246.878 39.5541 245.464 34.4316 242.945 29.6755C240.285 24.6507 236.953 20.1326 232.831 16.1844C226.518 10.1354 219.233 5.85764 210.751 3.5948C203.091 1.55155 195.276 1.09917 187.404 1.10625C187.391 1.10437 187.361 1.02456 187.359 0.98584H68.2051C68.2027 1.02645 68.2013 1.06706 68.1984 1.10625C63.7307 1.18795 59.2563 1.15442 54.8112 1.70502C49.9418 2.30992 45.1191 3.22081 40.5101 4.92171C33.2503 7.60482 26.9428 11.7839 21.5549 17.363C15.4506 23.6841 11.1478 30.9944 8.86477 39.5069C6.82796 47.1019 6.38468 54.8481 6.37381 62.649" fill="#FFFC00"/>
<path d="M128.925 206.029C128.419 206.029 127.936 206.011 127.569 205.993C127.278 206.018 126.977 206.029 126.676 206.029C116.05 206.029 108.945 201.02 102.675 196.597C98.1813 193.431 93.9431 190.443 88.9779 189.619C86.5394 189.216 84.1136 189.011 81.7698 189.011C77.5467 189.011 74.2093 189.665 71.7727 190.14C70.2733 190.431 68.9804 190.682 67.9811 190.682C66.9344 190.682 65.6628 190.45 65.1329 188.646C64.7128 187.222 64.4116 185.843 64.1208 184.515C63.3934 181.197 62.8658 179.171 61.6197 178.979C48.2923 176.929 40.4178 173.908 38.8493 170.25C38.685 169.866 38.5931 169.479 38.5727 169.096C38.5116 168.006 39.2836 167.049 40.3615 166.871C50.9454 165.133 60.3562 159.555 68.3339 150.286C74.5138 143.11 77.5486 136.254 77.8745 135.497C77.8887 135.463 77.9052 135.427 77.9223 135.394C79.4601 132.283 79.766 129.595 78.8344 127.406C77.1172 123.367 71.4298 121.568 67.6671 120.377C66.7313 120.082 65.8461 119.803 65.1409 119.524C61.8054 118.21 56.3197 115.434 57.0505 111.602C57.5828 108.808 61.2887 106.863 64.2837 106.863C65.1153 106.863 65.8523 107.008 66.4727 107.299C69.857 108.88 72.9017 109.681 75.5202 109.681C78.7767 109.681 80.3495 108.445 80.7298 108.093C80.636 106.361 80.5214 104.53 80.4106 102.798C80.4106 102.796 80.4082 102.775 80.4082 102.775C79.6438 90.6496 78.6905 75.56 82.5612 66.9068C94.1462 41.0047 118.715 38.9906 125.967 38.9906C126.16 38.9906 129.127 38.9613 129.127 38.9613C129.261 38.9589 129.407 38.957 129.557 38.957C136.829 38.957 161.449 40.9736 173.041 66.8912C176.912 75.5501 175.957 90.6525 175.191 102.79L175.155 103.371C175.05 105.02 174.952 106.579 174.87 108.092C175.229 108.42 176.668 109.554 179.596 109.668C182.092 109.573 184.961 108.775 188.12 107.301C189.096 106.843 190.178 106.748 190.912 106.748C192.021 106.748 193.15 106.964 194.091 107.355L194.142 107.375C196.822 108.323 198.578 110.22 198.616 112.212C198.649 114.068 197.265 116.844 190.459 119.525C189.762 119.8 188.872 120.081 187.933 120.378C184.167 121.57 178.484 123.369 176.767 127.405C175.834 129.594 176.141 132.281 177.679 135.391C177.696 135.425 177.711 135.46 177.727 135.496C178.201 136.603 189.664 162.667 215.24 166.869C216.318 167.048 217.091 168.005 217.029 169.094C217.007 169.485 216.912 169.876 216.746 170.258C215.189 173.896 207.315 176.912 193.983 178.965C192.732 179.158 192.205 181.175 191.484 184.476C191.186 185.839 190.882 187.176 190.468 188.58C190.08 189.901 189.217 190.547 187.831 190.547H187.623C186.72 190.547 185.442 190.383 183.83 190.069C181.012 189.522 177.852 189.013 173.833 189.013C171.49 189.013 169.064 189.218 166.623 189.621C161.663 190.444 157.425 193.428 152.939 196.59C146.657 201.02 139.55 206.029 128.925 206.029Z" fill="white"/>
<path d="M129.553 41.3305C136.381 41.3305 159.892 43.166 170.971 68.0253C174.62 76.2112 173.685 91.0396 172.935 102.951C172.817 104.842 172.701 106.674 172.607 108.423L172.567 109.176L173.069 109.736C173.271 109.961 175.168 111.944 179.386 112.107L179.454 112.111L179.525 112.11C182.313 112.003 185.454 111.136 188.866 109.537C189.368 109.302 190.037 109.187 190.744 109.187C191.551 109.187 192.408 109.339 193.114 109.636L193.221 109.679C195.01 110.306 196.274 111.489 196.293 112.559C196.304 113.164 195.852 115.344 189.511 117.851C188.891 118.096 188.076 118.356 187.13 118.654C183.004 119.966 176.77 121.944 174.672 126.892C173.49 129.679 173.814 132.968 175.633 136.667C176.381 138.415 188.159 164.966 214.662 169.336C214.657 169.462 214.625 169.6 214.554 169.762C214.105 170.821 211.25 174.479 193.482 177.223C190.702 177.649 190.021 180.768 189.231 184.394C188.946 185.692 188.656 187.002 188.257 188.355C188.135 188.764 188.113 188.787 187.675 188.787C187.614 188.787 187.543 188.787 187.466 188.787C186.678 188.787 185.482 188.624 184.096 188.352C181.571 187.859 178.122 187.256 173.713 187.256C171.252 187.256 168.717 187.47 166.173 187.895C160.736 188.8 156.315 191.929 151.632 195.242C145.343 199.689 138.844 204.291 128.926 204.291C128.493 204.291 128.07 204.277 127.647 204.255L127.535 204.251L127.423 204.259C127.18 204.28 126.935 204.291 126.685 204.291C116.769 204.291 110.266 199.691 103.98 195.242C99.2966 191.929 94.8727 188.8 89.4366 187.895C86.8954 187.471 84.358 187.256 81.8986 187.256C77.4902 187.256 74.037 187.931 71.5175 188.424C70.1312 188.695 68.931 188.928 68.1455 188.928C67.5022 188.928 67.4899 188.89 67.3539 188.425C66.9552 187.07 66.6638 185.729 66.3799 184.433C65.5883 180.803 64.9067 177.667 62.1279 177.24C44.3619 174.494 41.5062 170.83 41.0555 169.774C40.9852 169.608 40.9535 169.466 40.9464 169.34C67.4493 164.973 79.2251 138.421 79.9757 136.667C81.7975 132.971 82.1206 129.683 80.9355 126.892C78.8373 121.947 72.6044 119.966 68.4809 118.657C67.5329 118.357 66.7167 118.096 66.0965 117.851C60.7421 115.733 59.0951 113.601 59.3397 112.308C59.6236 110.818 62.2054 109.302 64.4584 109.302C64.9648 109.302 65.4088 109.384 65.7371 109.538C69.3963 111.254 72.7366 112.124 75.6665 112.124C80.2723 112.124 82.3223 109.98 82.5424 109.735L83.0416 109.176L83.0015 108.428C82.9084 106.679 82.7936 104.847 82.6727 102.961C81.925 91.0462 80.9898 76.2277 84.6367 68.0414C95.6752 43.2733 119.072 41.364 125.978 41.364C126.148 41.364 129.151 41.3333 129.151 41.3333C129.274 41.3323 129.41 41.3305 129.553 41.3305ZM129.553 37.0581H129.545C129.388 37.0581 129.24 37.0581 129.099 37.06C127.977 37.0713 126.132 37.0893 125.966 37.0912C121.92 37.0912 113.825 37.6632 105.129 41.5044C100.157 43.6992 95.6851 46.6669 91.8375 50.3252C87.2501 54.684 83.513 60.0582 80.7319 66.3008C76.6589 75.4411 77.6258 90.8368 78.4023 103.209L78.4052 103.228C78.4883 104.553 78.5757 105.937 78.6555 107.285C78.058 107.56 77.0892 107.85 75.6613 107.85C73.3639 107.85 70.6319 107.115 67.5433 105.666C66.6345 105.243 65.5973 105.028 64.4528 105.028C62.614 105.028 60.6755 105.57 58.994 106.56C56.8784 107.803 55.5114 109.56 55.1402 111.508C54.8955 112.797 54.9073 115.343 57.7343 117.926C59.2892 119.348 61.5734 120.66 64.5217 121.826C65.2954 122.131 66.2136 122.422 67.1862 122.73C70.561 123.804 75.6689 125.426 77.0009 128.563C77.6759 130.154 77.3854 132.247 76.1398 134.777C76.1072 134.846 76.0746 134.914 76.0449 134.985C75.7336 135.712 72.8297 142.295 66.873 149.238C63.4883 153.186 59.7601 156.485 55.7981 159.047C50.9623 162.175 45.7298 164.22 40.2474 165.124C38.0945 165.478 36.557 167.397 36.677 169.579C36.7138 170.208 36.8612 170.834 37.1167 171.441C37.1186 171.445 37.121 171.448 37.1229 171.452C37.9934 173.49 40.0117 175.221 43.293 176.747C47.3027 178.611 53.2995 180.179 61.1152 181.406C61.5101 182.158 61.9201 184.047 62.204 185.34C62.5011 186.715 62.8109 188.128 63.2526 189.629C63.7292 191.256 64.9653 193.2 68.1408 193.2C69.3443 193.2 70.7282 192.928 72.3309 192.617C74.6779 192.156 77.8875 191.528 81.8934 191.528C84.1143 191.528 86.416 191.723 88.7328 192.109C93.1988 192.853 97.0488 195.574 101.503 198.727C108.024 203.339 115.404 208.56 126.68 208.56C126.987 208.56 127.296 208.55 127.601 208.529C127.973 208.547 128.435 208.56 128.923 208.56C140.202 208.56 147.58 203.337 154.093 198.728L154.104 198.719C158.559 195.571 162.405 192.853 166.87 192.109C169.186 191.724 171.487 191.528 173.709 191.528C177.536 191.528 180.566 192.016 183.271 192.544C185.037 192.892 186.409 193.059 187.462 193.059L187.565 193.061H187.671C189.994 193.061 191.7 191.785 192.352 189.553C192.785 188.083 193.093 186.703 193.398 185.305C193.664 184.093 194.088 182.15 194.483 181.39C202.303 180.161 208.298 178.597 212.308 176.733C215.582 175.213 217.598 173.484 218.473 171.455C218.736 170.847 218.89 170.216 218.924 169.574C219.047 167.396 217.508 165.473 215.353 165.119C190.988 161.1 180.011 136.045 179.557 134.98C179.528 134.91 179.495 134.841 179.46 134.773C178.215 132.242 177.927 130.152 178.603 128.558C179.932 125.424 185.036 123.802 188.413 122.729C189.391 122.42 190.313 122.127 191.08 121.824C194.405 120.51 196.781 119.084 198.349 117.465C200.221 115.535 200.586 113.686 200.563 112.476C200.506 109.548 198.27 106.946 194.712 105.672C193.51 105.175 192.14 104.912 190.745 104.912C189.795 104.912 188.388 105.043 187.057 105.665C184.206 107 181.653 107.73 179.461 107.834C178.295 107.774 177.477 107.522 176.948 107.28C177.015 106.138 177.088 104.965 177.164 103.741L177.196 103.218C177.977 90.8373 178.947 75.4298 174.872 66.2829C172.079 60.0181 168.329 54.6301 163.723 50.2618C159.86 46.6012 155.373 43.634 150.383 41.4406C141.7 37.6277 133.605 37.0581 129.553 37.0581Z" fill="#020202"/>
<defs>
<filter id="filter0_f_183_28" x="0" y="0.98584" width="257.016" height="254.014" filterUnits="userSpaceOnUse" color-interpolation-filters="sRGB">
<feFlood flood-opacity="0" result="BackgroundImageFix"/>
<feBlend mode="normal" in="SourceGraphic" in2="BackgroundImageFix" result="shape"/>
<feGaussianBlur stdDeviation="2" result="effect1_foregroundBlur_183_28"/>
</filter>
</defs>
</svg>
