<svg width="236" height="236" viewBox="0 0 236 236" fill="none" xmlns="http://www.w3.org/2000/svg">
<path d="M118.668 0.792138L93.4078 71.6143L110.579 71.6197C122.949 71.6232 128.213 81.3761 124.318 92.2981L99.2005 162.719H73.926L101.56 85.2328H88.5469L60.9149 162.719H35.4221L92.123 3.7293C39.9068 15.6412 0.938477 62.3627 0.938477 118.188C0.938477 173.144 38.7 219.274 89.6904 232.064L146.976 71.2196H188.464C197.045 71.2196 207.837 77.0054 203.173 90.174L179.88 155.945C176.905 164.347 169.832 166.049 164.198 166.049H138.693L113.956 235.503C115.413 235.556 116.872 235.593 118.34 235.593C183.18 235.593 235.743 183.031 235.743 118.19C235.743 53.4585 183.356 0.967608 118.664 0.791504L118.668 0.792138ZM167.543 85.0428L143.483 152.582H156.295L180.36 85.0428H167.543Z" fill="#015294"/>
</svg>
